<svg width="193" height="77" viewBox="0 0 193 77" fill="none" xmlns="http://www.w3.org/2000/svg">
<path fill-rule="evenodd" clip-rule="evenodd" d="M22.6667 20C22.6667 19.7348 22.4929 19.4804 22.1837 19.2929C21.8744 19.1054 21.4549 19 21.0175 19H16.8947C16.4574 19 16.0379 19.1054 15.7286 19.2929C15.4194 19.4804 15.2456 19.7348 15.2456 20V32.182C15.2449 32.2821 15.2098 32.3811 15.1425 32.4725C15.0752 32.5639 14.9772 32.6458 14.8548 32.713C12.3834 34.0627 10.4071 35.7122 9.05403 37.5546C7.70092 39.397 7.00114 41.3912 7 43.408V56.792C7 58.012 8.63098 59 10.6413 59H26.2024C27.2328 59 28.2211 58.7518 28.9497 58.3099C29.6784 57.8681 30.0877 57.2689 30.0877 56.644V43.063C30.0877 39.181 27.5448 35.458 23.0179 32.713C22.7935 32.5765 22.6673 32.3917 22.6667 32.199V20ZM10.2982 44H26.7895V52H10.2982V44ZM49.2819 39H37.2779L38.3333 33H48.2281L49.2819 39ZM35.3649 31H51.1965L52.867 40.536C53.1251 42.0115 52.4488 43.4914 50.9751 44.676C49.5014 45.8605 47.3405 46.6612 44.9298 46.916V57H49.8772C50.3146 57 50.734 57.1054 51.0433 57.2929C51.3526 57.4804 51.5263 57.7348 51.5263 58C51.5263 58.2652 51.3526 58.5196 51.0433 58.7071C50.734 58.8946 50.3146 59 49.8772 59H36.6842C36.2468 59 35.8274 58.8946 35.5181 58.7071C35.2088 58.5196 35.0351 58.2652 35.0351 58C35.0351 57.7348 35.2088 57.4804 35.5181 57.2929C35.8274 57.1054 36.2468 57 36.6842 57H41.6316V46.915C39.2212 46.6603 37.0605 45.8597 35.5869 44.6753C34.1133 43.491 33.4368 42.0114 33.6943 40.536L35.3649 31Z" fill="#F24E1E"/>
<path d="M72.6084 16.1875C73.9417 16.2292 75.1084 16.25 76.1084 16.25C77.1084 16.2083 77.9209 16.1875 78.5459 16.1875H80.3584C80.8167 16.1458 81.3792 16.125 82.0459 16.125C82.6292 16.125 83.3376 16.125 84.1709 16.125C85.0042 16.125 85.9626 16.1458 87.0459 16.1875C87.3792 17.3542 87.7542 18.5 88.1709 19.625C88.6292 20.7083 89.0251 21.6875 89.3584 22.5625C89.7751 23.6042 90.1917 24.5833 90.6084 25.5C91.0251 26.4167 91.5251 27.5208 92.1084 28.8125C92.6084 29.8958 93.2126 31.2292 93.9209 32.8125C94.6292 34.3542 95.4626 36.125 96.4209 38.125C96.8792 36.8333 97.2959 35.6458 97.6709 34.5625C98.0876 33.4792 98.4417 32.5417 98.7334 31.75C99.0667 30.8333 99.3376 30 99.5459 29.25C99.7542 28.5 99.9834 27.5833 100.233 26.5C100.442 25.5833 100.671 24.4792 100.921 23.1875C101.213 21.8958 101.504 20.3958 101.796 18.6875C103.004 18.6875 104.088 18.6875 105.046 18.6875C106.004 18.6875 106.838 18.6667 107.546 18.625C108.338 18.625 109.046 18.6042 109.671 18.5625C110.338 18.5625 111.233 18.5208 112.358 18.4375C113.317 18.3542 114.588 18.2917 116.171 18.25C117.796 18.1667 119.796 18.0625 122.171 17.9375C121.296 18.5625 120.588 19.1875 120.046 19.8125C119.546 20.3958 119.15 20.9167 118.858 21.375C118.525 21.9167 118.317 22.4375 118.233 22.9375C118.15 23.3542 118.067 24.3125 117.983 25.8125C117.942 27.3125 117.879 29.1042 117.796 31.1875C117.754 33.2292 117.713 35.4167 117.671 37.75C117.671 40.0833 117.692 42.2917 117.733 44.375C117.775 46.4583 117.838 48.2708 117.921 49.8125C118.046 51.3125 118.213 52.2708 118.421 52.6875C118.713 53.1875 119.108 53.7708 119.608 54.4375C120.067 55.0208 120.65 55.6875 121.358 56.4375C122.108 57.1875 123.088 58.0208 124.296 58.9375C122.379 59.0208 120.775 59.0833 119.483 59.125C118.233 59.1667 117.192 59.2083 116.358 59.25C115.4 59.2917 114.629 59.3125 114.046 59.3125C113.421 59.3125 112.567 59.3333 111.483 59.375C110.525 59.4167 109.254 59.4792 107.671 59.5625C106.088 59.6042 104.046 59.6875 101.546 59.8125C102.129 59.1458 102.671 58.4792 103.171 57.8125C103.671 57.1458 104.088 56.5417 104.421 56C104.838 55.375 105.192 54.7708 105.483 54.1875C105.775 53.3958 106.004 51.9583 106.171 49.875C106.338 48.0833 106.463 45.5208 106.546 42.1875C106.629 38.8125 106.629 34.2917 106.546 28.625C105.754 29.9167 105.046 31.2083 104.421 32.5C103.838 33.75 103.317 34.8958 102.858 35.9375C102.358 37.1458 101.9 38.3125 101.483 39.4375C101.067 40.6042 100.629 41.8958 100.171 43.3125C99.7542 44.5208 99.2542 45.9583 98.6709 47.625C98.1292 49.2917 97.5042 51.125 96.7959 53.125L94.4209 53.25C94.0876 51.5833 93.7542 50.0833 93.4209 48.75C93.0876 47.375 92.7542 46.2083 92.4209 45.25C92.0459 44.125 91.6709 43.125 91.2959 42.25C90.8792 41.375 90.4209 40.3958 89.9209 39.3125C89.4626 38.3958 88.9001 37.3125 88.2334 36.0625C87.6084 34.8125 86.8792 33.4167 86.0459 31.875C85.6292 36.125 85.3792 39.5833 85.2959 42.25C85.2126 44.875 85.2126 46.9167 85.2959 48.375C85.3792 50.125 85.5042 51.3958 85.6709 52.1875C85.9209 52.8958 86.3167 53.6875 86.8584 54.5625C87.3167 55.3125 87.9417 56.2083 88.7334 57.25C89.5667 58.25 90.6292 59.375 91.9209 60.625C91.0042 60.625 90.0459 60.625 89.0459 60.625C88.0459 60.625 87.1292 60.6458 86.2959 60.6875C85.2959 60.7292 84.3167 60.75 83.3584 60.75C82.3584 60.7917 81.1917 60.8542 79.8584 60.9375C78.6917 61.0208 77.2959 61.1042 75.6709 61.1875C74.0459 61.2708 72.1709 61.4167 70.0459 61.625C70.9626 61.0417 71.7126 60.4792 72.2959 59.9375C72.8792 59.3542 73.3376 58.8333 73.6709 58.375C74.0876 57.8333 74.4001 57.2917 74.6084 56.75C74.7334 56.4167 74.8376 55.6875 74.9209 54.5625C75.0459 53.4375 75.1501 52.0625 75.2334 50.4375C75.3584 48.8125 75.4417 47 75.4834 45C75.5667 43 75.6292 40.9792 75.6709 38.9375C75.7542 36.8542 75.8167 34.8333 75.8584 32.875C75.9001 30.875 75.9209 29.0833 75.9209 27.5C75.9626 25.875 75.9834 24.5208 75.9834 23.4375C75.9834 22.3542 75.9834 21.6667 75.9834 21.375C75.8584 20.75 75.6709 20.125 75.4209 19.5C75.2126 18.9583 74.8792 18.3958 74.4209 17.8125C73.9626 17.2292 73.3584 16.6875 72.6084 16.1875ZM128.358 35.6875C128.567 35.4375 128.692 34.9792 128.733 34.3125C128.817 33.6042 128.983 32.8125 129.233 31.9375C129.525 31.0625 130.004 30.1458 130.671 29.1875C131.338 28.2292 132.421 27.3333 133.921 26.5C135.379 25.6667 136.796 25.1667 138.171 25C139.546 24.8333 140.858 24.8958 142.108 25.1875C143.358 25.4792 144.525 25.9375 145.608 26.5625C146.733 27.1875 147.754 27.875 148.671 28.625C149.296 29.125 149.796 29.8542 150.171 30.8125C150.546 31.7292 150.838 32.7708 151.046 33.9375C151.254 35.1042 151.4 36.3333 151.483 37.625C151.608 38.875 151.692 40.1042 151.733 41.3125C151.775 42.4792 151.796 43.5625 151.796 44.5625C151.838 45.5208 151.921 46.3125 152.046 46.9375C152.213 47.8542 152.504 48.6458 152.921 49.3125C153.338 49.9375 153.796 50.4792 154.296 50.9375C154.796 51.3542 155.296 51.6875 155.796 51.9375C156.296 52.1875 156.733 52.375 157.108 52.5C157.358 52.625 157.588 52.7083 157.796 52.75C158.213 52.9167 158.504 52.9167 158.671 52.75C158.421 53.3333 158.192 53.8333 157.983 54.25C157.775 54.6667 157.608 55.0208 157.483 55.3125C157.317 55.6458 157.171 55.9167 157.046 56.125C156.921 56.375 156.775 56.6042 156.608 56.8125C156.483 57.0208 156.317 57.25 156.108 57.5C155.9 57.75 155.692 58.0208 155.483 58.3125C154.942 58.1042 154.421 57.8542 153.921 57.5625C153.463 57.2708 153.046 57 152.671 56.75C152.213 56.4583 151.796 56.1667 151.421 55.875C151.046 55.5833 150.692 55.25 150.358 54.875C150.067 54.5417 149.754 54.1875 149.421 53.8125C149.129 53.4375 148.879 53.0208 148.671 52.5625C148.421 53.1042 147.817 53.875 146.858 54.875C145.942 55.875 144.733 56.7917 143.233 57.625C141.733 58.4167 139.983 58.9792 137.983 59.3125C136.025 59.6458 133.858 59.4167 131.483 58.625C130.442 58.2917 129.463 57.8125 128.546 57.1875C127.629 56.5208 126.838 55.7292 126.171 54.8125C125.546 53.8958 125.088 52.8542 124.796 51.6875C124.546 50.4792 124.567 49.1458 124.858 47.6875C125.15 46.2292 125.671 45 126.421 44C127.171 43 128.067 42.1875 129.108 41.5625C130.15 40.9375 131.317 40.4583 132.608 40.125C133.9 39.7917 135.233 39.5625 136.608 39.4375C137.692 39.3958 138.775 39.4583 139.858 39.625C140.775 39.7917 141.733 40.1042 142.733 40.5625C143.733 40.9792 144.588 41.625 145.296 42.5C145.254 40.2917 145.171 38.5417 145.046 37.25C144.963 35.9167 144.879 34.8958 144.796 34.1875C144.629 33.3542 144.483 32.7708 144.358 32.4375C144.15 32.1458 143.921 31.8125 143.671 31.4375C143.463 31.0625 143.192 30.7292 142.858 30.4375C142.525 30.1042 142.108 29.8333 141.608 29.625C141.108 29.4167 140.525 29.3333 139.858 29.375C139.15 29.4167 138.588 29.6042 138.171 29.9375C137.754 30.2708 137.421 30.6667 137.171 31.125C136.963 31.5417 136.838 32 136.796 32.5C136.754 33 136.775 33.4375 136.858 33.8125C136.942 34.0625 137.067 34.3333 137.233 34.625C137.4 34.875 137.629 35.1458 137.921 35.4375C138.213 35.7292 138.608 35.9792 139.108 36.1875C138.15 36.3125 137.296 36.4167 136.546 36.5C135.796 36.5417 135.15 36.6042 134.608 36.6875C133.983 36.7708 133.442 36.8333 132.983 36.875C132.525 36.9167 131.983 37 131.358 37.125C130.817 37.2083 130.15 37.3125 129.358 37.4375C128.567 37.5625 127.65 37.7292 126.608 37.9375C126.858 37.6458 127.088 37.375 127.296 37.125C127.504 36.8333 127.692 36.5833 127.858 36.375C128.025 36.125 128.192 35.8958 128.358 35.6875ZM137.733 43.125C136.983 43.1667 136.233 43.3542 135.483 43.6875C134.733 43.9792 134.067 44.4167 133.483 45C132.9 45.5417 132.4 46.1875 131.983 46.9375C131.608 47.6458 131.421 48.4375 131.421 49.3125C131.421 50.1875 131.629 50.9583 132.046 51.625C132.504 52.25 133.088 52.7708 133.796 53.1875C134.546 53.6042 135.338 53.8542 136.171 53.9375C137.046 54.0208 137.9 53.9375 138.733 53.6875C139.525 53.3958 140.275 52.9375 140.983 52.3125C141.692 51.6458 142.296 50.9375 142.796 50.1875C143.296 49.3958 143.65 48.625 143.858 47.875C144.067 47.0833 144.088 46.4375 143.921 45.9375C143.588 44.8542 142.838 44.1042 141.671 43.6875C140.504 43.2292 139.192 43.0417 137.733 43.125ZM155.671 26.3125C156.879 26.3125 157.879 26.3333 158.671 26.375C159.463 26.375 160.088 26.375 160.546 26.375H161.796H163.233C163.817 26.375 164.588 26.375 165.546 26.375C166.546 26.3333 167.838 26.2708 169.421 26.1875C168.671 26.3542 168.088 26.5417 167.671 26.75C167.254 26.9167 166.942 27.1042 166.733 27.3125C166.483 27.5208 166.338 27.75 166.296 28C166.338 28.3333 166.483 28.8542 166.733 29.5625C166.942 30.1875 167.296 31.0417 167.796 32.125C168.338 33.2083 169.129 34.6667 170.171 36.5C171.921 34.5 173.254 32.9167 174.171 31.75C175.088 30.5833 175.775 29.6875 176.233 29.0625C176.692 28.3542 176.963 27.875 177.046 27.625C177.004 27.4167 176.942 27.2083 176.858 27C176.733 26.6667 176.421 26.1458 175.921 25.4375C177.046 25.5208 178.025 25.5833 178.858 25.625C179.692 25.625 180.4 25.6458 180.983 25.6875C181.65 25.7292 182.192 25.75 182.608 25.75C183.067 25.75 183.733 25.7292 184.608 25.6875C185.317 25.6458 186.275 25.6042 187.483 25.5625C188.733 25.4792 190.296 25.3542 192.171 25.1875C190.629 25.9375 189.317 26.6667 188.233 27.375C187.15 28.0417 186.254 28.6458 185.546 29.1875C184.713 29.8125 184.025 30.3958 183.483 30.9375C182.942 31.5625 182.275 32.3333 181.483 33.25C180.775 34.0833 179.9 35.125 178.858 36.375C177.858 37.5833 176.629 39.1042 175.171 40.9375C176.254 42.8125 177.275 44.4167 178.233 45.75C179.233 47.0833 180.088 48.1875 180.796 49.0625C181.629 50.1042 182.4 50.9375 183.108 51.5625C183.817 52.1875 184.588 52.8125 185.421 53.4375C186.129 53.9792 186.942 54.5625 187.858 55.1875C188.817 55.7708 189.838 56.2917 190.921 56.75C189.838 56.8333 188.775 56.8958 187.733 56.9375C186.733 56.9375 185.838 56.9792 185.046 57.0625C184.129 57.1458 183.254 57.2083 182.421 57.25C181.588 57.3333 180.733 57.3958 179.858 57.4375C179.108 57.4792 178.275 57.5208 177.358 57.5625C176.442 57.6042 175.504 57.625 174.546 57.625C174.921 57.25 175.213 56.8958 175.421 56.5625C175.629 56.2292 175.796 55.9375 175.921 55.6875C176.088 55.3958 176.192 55.125 176.233 54.875C176.192 54.5417 175.983 54 175.608 53.25C175.275 52.5833 174.754 51.6667 174.046 50.5C173.338 49.2917 172.296 47.6667 170.921 45.625C169.963 46.625 169.192 47.5 168.608 48.25C168.067 49 167.65 49.625 167.358 50.125C167.025 50.7083 166.796 51.1875 166.671 51.5625C166.588 51.9375 166.588 52.3542 166.671 52.8125C166.754 53.1875 166.879 53.6458 167.046 54.1875C167.213 54.6875 167.504 55.2083 167.921 55.75C165.838 55.875 164.088 55.9375 162.671 55.9375H160.546C159.879 55.9375 159.088 55.9167 158.171 55.875C157.379 55.8333 156.4 55.8125 155.233 55.8125C154.025 55.7708 152.629 55.7083 151.046 55.625C151.504 55.4583 151.983 55.25 152.483 55C152.983 54.75 153.421 54.5208 153.796 54.3125C154.254 54.0625 154.692 53.7917 155.108 53.5C155.567 53.125 156.296 52.4167 157.296 51.375C158.129 50.5 159.275 49.2708 160.733 47.6875C162.192 46.0625 164.088 43.8958 166.421 41.1875C165.046 38.6875 163.921 36.7083 163.046 35.25C162.213 33.75 161.567 32.5833 161.108 31.75C160.567 30.7917 160.171 30.1458 159.921 29.8125C159.671 29.4792 159.338 29.1042 158.921 28.6875C158.254 28.0208 157.171 27.2292 155.671 26.3125Z" fill="#F24E1E"/>
</svg>
